<svg xmlns="http://www.w3.org/2000/svg" viewBox="0 0 960 540" role="img" aria-labelledby="title desc">
<title id="title">Coconut Harvest AI animated concept demo</title><desc id="desc">Concept animation showing orchard sensing, coconut candidate detection, a robot arm path, and a safety status panel. Simulation concept only.</desc>
<defs><linearGradient id="bg" x2="0" y2="1"><stop stop-color="#123b35"/><stop offset="1" stop-color="#071d22"/></linearGradient><linearGradient id="leaf" x2="1" y2="1"><stop stop-color="#a8e063"/><stop offset="1" stop-color="#277c4b"/></linearGradient></defs>
<rect width="960" height="540" rx="24" fill="url(#bg)"/><text x="38" y="48" fill="#baf3cf" font-family="Arial" font-size="17" letter-spacing="3">AI APPLICATION / CONCEPT SIMULATION</text><text x="38" y="88" fill="white" font-family="Arial" font-size="30" font-weight="700">Coconut Harvest AI</text>
<rect x="35" y="115" width="610" height="385" rx="18" fill="#163e38" stroke="#427b65"/>
<path d="M45 420 Q180 375 310 422 T635 416 L635 490 L45 490Z" fill="#245d42"/>
<path d="M330 400 L350 220" stroke="#9b6c3e" stroke-width="24" stroke-linecap="round"/>
<g fill="url(#leaf)" stroke="#b4ed8a" stroke-width="2"><ellipse cx="300" cy="230" rx="90" ry="22" transform="rotate(-28 300 230)"/><ellipse cx="370" cy="205" rx="94" ry="22" transform="rotate(22 370 205)"/><ellipse cx="294" cy="185" rx="84" ry="20" transform="rotate(-48 294 185)"/><ellipse cx="393" cy="168" rx="88" ry="21" transform="rotate(43 393 168)"/><ellipse cx="343" cy="151" rx="80" ry="20" transform="rotate(-8 343 151)"/></g>
<g fill="#8b5b32" stroke="#d7a96b" stroke-width="2"><circle cx="350" cy="245" r="15"/><circle cx="377" cy="254" r="14"/><circle cx="330" cy="262" r="13"/></g>
<rect x="306" y="222" width="88" height="58" rx="10" fill="none" stroke="#7cf4ff" stroke-width="3" stroke-dasharray="7 6"><animate attributeName="stroke-dashoffset" from="0" to="-52" dur="2s" repeatCount="indefinite"/></rect>
<text x="405" y="238" fill="#7cf4ff" font-family="Arial" font-size="13">CANDIDATES</text><path d="M410 245 L391 250" stroke="#7cf4ff" stroke-width="2"/>
<g transform="translate(110 360)"><rect x="0" y="0" width="105" height="57" rx="12" fill="#c4d6df" stroke="#f1fbff" stroke-width="3"/><circle cx="25" cy="59" r="13" fill="#172d36" stroke="#8ea9b6" stroke-width="5"/><circle cx="80" cy="59" r="13" fill="#172d36" stroke="#8ea9b6" stroke-width="5"/><rect x="26" y="-19" width="55" height="21" rx="6" fill="#56c5cf"/><circle cx="53" cy="-9" r="6" fill="#071d22"/><path d="M52 -19 L52 -45 L90 -63" fill="none" stroke="#dbeaf1" stroke-width="10" stroke-linecap="round"/><path d="M90 -63 L112 -49" fill="none" stroke="#dbeaf1" stroke-width="8" stroke-linecap="round"/><path d="M111 -49 l12 -12 m-12 12 l14 8" fill="none" stroke="#7cf4ff" stroke-width="5" stroke-linecap="round"><animateTransform attributeName="transform" type="rotate" values="0 90 -63;-12 90 -63;0 90 -63" dur="3s" repeatCount="indefinite"/></path></g>
<path d="M224 345 Q260 310 302 277" fill="none" stroke="#7cf4ff" stroke-width="4" stroke-dasharray="8 8"><animate attributeName="stroke-dashoffset" from="0" to="-32" dur="1.5s" repeatCount="indefinite"/></path>
<rect x="672" y="115" width="253" height="385" rx="18" fill="#0c292d" stroke="#427b65"/><text x="697" y="151" fill="#d8fff0" font-family="Arial" font-size="17" font-weight="700">MISSION STATUS</text>
<text x="697" y="194" fill="#a9c8c7" font-family="Arial" font-size="13">Vision pipeline</text><rect x="697" y="207" width="202" height="9" rx="4" fill="#234a4b"/><rect x="697" y="207" width="166" height="9" rx="4" fill="#57d8a1"><animate attributeName="width" values="100;180;166" dur="3s" repeatCount="indefinite"/></rect>
<text x="697" y="249" fill="#a9c8c7" font-family="Arial" font-size="13">Target candidates</text><text x="897" y="249" fill="#ffffff" text-anchor="end" font-family="Arial" font-size="20" font-weight="700">03</text>
<text x="697" y="292" fill="#a9c8c7" font-family="Arial" font-size="13">Safety gate</text><rect x="697" y="304" width="202" height="42" rx="9" fill="#254d3f"/><circle cx="716" cy="325" r="6" fill="#ffd166"><animate attributeName="opacity" values="1;.3;1" dur="1.8s" repeatCount="indefinite"/></circle><text x="733" y="330" fill="#ffe6a5" font-family="Arial" font-size="13">Human approval required</text>
<text x="697" y="382" fill="#a9c8c7" font-family="Arial" font-size="13">Illustrative cycle</text><g transform="translate(699 398)"><circle cx="12" cy="12" r="10" fill="#5be0a0"/><path d="M8 12 l3 3 6 -7" stroke="#073a2a" stroke-width="2" fill="none"/><text x="31" y="17" fill="#d8fff0" font-family="Arial" font-size="13">Detect → plan → review</text></g>
<text x="38" y="525" fill="#9cbab7" font-family="Arial" font-size="12">ANIMATED CONCEPT ONLY • NOT FIELD-VALIDATED • NO REAL ROBOT CONTROL</text></svg>